# xmcd
# 
# Track frame offsets:
#     150
#     42459
#     70836
#     96000
#     139604
#     163076
#     198122
#     220710
#     262066
#     296995
#     318405
# 
# Disc length: 4635
# 
# Revision: 1
# Processed by: cddbd v1.5.2PL0 Copyright (c) Steve Scherf et al.
# Submitted via: fre:ac v1.1beta1pre5
# 
DISCID=a812190b
DTITLE=Stieg Larsson - The Girl Who Kicked The Hornet's Nest
DYEAR=2010
DGENRE=Audiobook
TTITLE0=Girl Who Kicked the Hornets Nest - CD 05 Track 01
TTITLE1=Girl Who Kicked the Hornets Nest - CD 05 Track 02
TTITLE2=Girl Who Kicked the Hornets Nest - CD 05 Track 03
TTITLE3=Girl Who Kicked the Hornets Nest - CD 05 Track 04
TTITLE4=Girl Who Kicked the Hornets Nest - CD 05 Track 05
TTITLE5=Girl Who Kicked the Hornets Nest - CD 05 Track 06
TTITLE6=Girl Who Kicked the Hornets Nest - CD 05 Track 07
TTITLE7=Girl Who Kicked the Hornets Nest - CD 05 Track 08
TTITLE8=Girl Who Kicked the Hornets Nest - CD 05 Track 09
TTITLE9=Girl Who Kicked the Hornets Nest - CD 05 Track 10
TTITLE10=Girl Who Kicked the Hornets Nest - CD 05 Track 11
EXTD=YEAR: 2010
EXTT0=
EXTT1=
EXTT2=
EXTT3=
EXTT4=
EXTT5=
EXTT6=
EXTT7=
EXTT8=
EXTT9=
EXTT10=
PLAYORDER=
